<svg xmlns="http://www.w3.org/2000/svg" viewBox="0 0 256 256" width="256" height="256" role="img" aria-label="Photo Guessing Game (tvOS) icon"><!--! Font Awesome Free 7.0.1 by @fontawesome - https://fontawesome.com License - https://fontawesome.com/license/free (Icons: CC BY 4.0, Fonts: SIL OFL 1.1, Code: MIT License) Copyright 2025 Fonticons, Inc. --><rect x="2.0" y="2.0" width="252" height="252" rx="40" fill="#0f172a" stroke="#334155" stroke-width="4"/><svg x="48.0" y="48.0" width="160" height="160" viewBox="0 0 576 512"><path fill="#F43F5E" d="M64 96l0 240 448 0 0-240-448 0zM0 96C0 60.7 28.7 32 64 32l448 0c35.3 0 64 28.7 64 64l0 240c0 35.3-28.7 64-64 64L64 400c-35.3 0-64-28.7-64-64L0 96zM160 448l256 0c17.7 0 32 14.3 32 32s-14.3 32-32 32l-256 0c-17.7 0-32-14.3-32-32s14.3-32 32-32z"/></svg></svg>
